Coordinates
version=1
nRows=5
nColumns=40
inDegrees=yes
endheader
time	pelvis_tilt	pelvis_list	pelvis_rotation	pelvis_tx	pelvis_ty	pelvis_tz	hip_flexion_r	hip_adduction_r	hip_rotation_r	knee_angle_r	knee_angle_r_beta	ankle_angle_r	subtalar_angle_r	mtp_angle_r	hip_flexion_l	hip_adduction_l	hip_rotation_l	knee_angle_l	knee_angle_l_beta	ankle_angle_l	subtalar_angle_l	mtp_angle_l	lumbar_extension	lumbar_bending	lumbar_rotation	arm_flex_r	arm_add_r	arm_rot_r	elbow_flex_r	pro_sup_r	wrist_flex_r	wrist_dev_r	arm_flex_l	arm_add_l	arm_rot_l	elbow_flex_l	pro_sup_l	wrist_flex_l	wrist_dev_l
1760624559.58899999	      8.98326888	      1.45772184	      0.33148557	      0.02126699	      0.88980737	     -0.00671378	     80.00000000	     -7.00000000	      0.00000000	     80.00000000	      1.39626340	      0.00000000	      0.00000000	      0.00000000	     80.00000000	     -7.00000000	      0.00000000	     80.00000000	      1.39626340	      0.00000000	      0.00000000	      0.00000000	    -13.07628186	     -0.73178495	     -1.07102196	      5.11787197	     -1.46674644	      0.55067251	      0.33976087	      0.04090372	     58.31649610	    -24.03821907	      4.48766498	     -0.86653242	     -1.54834973	     27.82147041	      0.00000000	    -27.35211191	     -4.65495408
1760624559.62199998	      8.84360492	      1.22530167	      0.35721791	      0.02095333	      0.89288636	     -0.00607512	     80.00000000	     -7.00000000	      0.00000000	     80.00000000	      1.39626340	      0.00000000	      0.00000000	      0.00000000	     80.00000000	     -7.00000000	      0.00000000	     80.00000000	      1.39626340	      0.00000000	      0.00000000	      0.00000000	    -12.78545474	     -0.45330232	     -0.89841970	      5.04633590	     -1.58298889	      0.44452195	      0.31726202	      0.00000000	     60.21049265	    -24.99999983	      4.34103954	     -0.80556648	     -1.43928874	     28.38829750	      0.00000000	    -27.91826878	     -4.74896863
1760624559.65499997	      8.53470312	      1.19440984	      0.34646607	      0.01892401	      0.89334042	     -0.00616194	     80.00000000	     -7.00000000	      0.00000000	     80.00000000	      1.39626340	      0.00000000	      0.00000000	      0.00000000	     80.00000000	     -7.00000000	      0.00000000	     80.00000000	      1.39626340	      0.00000000	      0.00000000	      0.00000000	    -12.20131514	     -0.38179677	     -0.74070512	      4.80429804	     -1.67764929	      0.34232001	      0.30921499	      0.00000000	     60.20764807	    -24.99999983	      4.03787272	     -0.74209760	     -1.20458180	     27.29356213	      0.00000000	    -26.82763805	     -4.55838507
1760624559.68899989	      8.68497734	      1.21610049	      0.28214834	      0.01943498	      0.89423740	     -0.00660570	     80.00000000	     -7.00000000	      0.00000000	     80.00000000	      1.39626340	      0.00000000	      0.00000000	      0.00000000	     80.00000000	     -7.00000000	      0.00000000	     80.00000000	      1.39626340	      0.00000000	      0.00000000	      0.00000000	    -12.40056857	     -0.39289875	     -0.67333198	      4.87759614	     -1.71330406	      0.35594271	      0.31974613	      0.00000000	     59.96327098	    -24.99999983	      4.08713363	     -0.73496127	     -1.20173508	     27.94619782	      0.00000000	    -27.46728325	     -4.68032185
1760624559.72199988	      8.92912874	      1.20173840	      0.29591365	      0.02181449	      0.89450900	     -0.00675439	     80.00000000	     -7.00000000	      0.00000000	     80.00000000	      1.39626340	      0.00000000	      0.00000000	      0.00000000	     80.00000000	     -7.00000000	      0.00000000	     80.00000000	      1.39626340	      0.00000000	      0.00000000	      0.00000000	    -12.77172097	     -0.41551685	     -0.65583495	      5.06356299	     -1.68643458	      0.36845482	      0.31193829	      0.00000000	     60.41535432	    -24.97726080	      4.23375469	     -0.79318235	     -1.22517289	     29.19191153	      0.00000000	    -28.65537214	     -4.90242093
